<?xml version="1.0" encoding="UTF-8"?>
<svg width="60" height="60" viewBox="0 0 60 60" fill="none" xmlns="http://www.w3.org/2000/svg">
  <!-- First Coffee Bean -->
  <path d="M20 12C14.5 15.5 12.5 21.5 15 27C17.5 32.5 24 34 29.5 30.5C35 27 37 21 34.5 15.5C32 10 25.5 8.5 20 12Z" fill="#B45309" fill-opacity="0.3"/>
  <path d="M20 12C14.5 15.5 12.5 21.5 15 27C17.5 32.5 24 34 29.5 30.5C35 27 37 21 34.5 15.5C32 10 25.5 8.5 20 12Z" stroke="#B45309" stroke-opacity="0.5" stroke-width="1.5"/>
  
  <!-- Second Coffee Bean -->
  <path d="M33 30C27.5 33.5 25.5 39.5 28 45C30.5 50.5 37 52 42.5 48.5C48 45 50 39 47.5 33.5C45 28 38.5 26.5 33 30Z" fill="#B45309" fill-opacity="0.3"/>
  <path d="M33 30C27.5 33.5 25.5 39.5 28 45C30.5 50.5 37 52 42.5 48.5C48 45 50 39 47.5 33.5C45 28 38.5 26.5 33 30Z" stroke="#B45309" stroke-opacity="0.5" stroke-width="1.5"/>
  
  <!-- Bean details -->
  <path d="M25 19C23 21 22 24 23 26" stroke="#B45309" stroke-opacity="0.7" stroke-width="1" stroke-linecap="round"/>
  <path d="M38 37C36 39 35 42 36 44" stroke="#B45309" stroke-opacity="0.7" stroke-width="1" stroke-linecap="round"/>
</svg> 