<svg width="120" height="40" viewBox="0 0 120 40" fill="none" xmlns="http://www.w3.org/2000/svg">
  <rect width="120" height="40" rx="8" fill="#000000"/>
  <path d="M25.604 20.703C25.588 17.521 28.14 16.095 28.257 16.024C26.815 13.9 24.526 13.59 23.74 13.574C21.796 13.37 19.915 14.71 18.929 14.71C17.925 14.71 16.409 13.59 14.75 13.622C12.62 13.654 10.635 14.882 9.549 16.8C7.311 20.703 8.99 26.437 11.132 29.571C12.217 31.101 13.484 32.814 15.137 32.75C16.758 32.685 17.371 31.735 19.317 31.735C21.245 31.735 21.826 32.75 23.516 32.718C25.253 32.685 26.345 31.165 27.382 29.619C28.646 27.874 29.148 26.161 29.164 26.065C29.132 26.049 25.636 24.798 25.604 20.703Z" fill="white"/>
  <path d="M22.495 11.558C23.371 10.499 23.968 9.054 23.806 7.594C22.592 7.642 21.071 8.432 20.164 9.47C19.348 10.403 18.64 11.91 18.818 13.305C20.179 13.402 21.603 12.602 22.495 11.558Z" fill="white"/>
  <path d="M42.432 27.553H40.229L39.075 23.957H35.006L33.917 27.553H31.779L35.789 15.443H38.373L42.432 27.553ZM38.754 22.319L37.812 19.454C37.696 19.098 37.487 18.226 37.187 16.817H37.152C37.025 17.38 36.826 18.252 36.557 19.454L35.633 22.319H38.754Z" fill="white"/>
  <path d="M53.372 23.14C53.372 24.664 52.932 25.853 52.053 26.705C51.271 27.455 50.293 27.83 49.121 27.83C47.845 27.83 46.94 27.418 46.405 26.597H46.37V31.245H44.32V21.45C44.32 20.486 44.292 19.491 44.232 18.465H46.046L46.15 19.882H46.186C46.886 18.787 47.951 18.241 49.376 18.241C50.507 18.241 51.453 18.642 52.211 19.444C52.985 20.246 53.372 21.517 53.372 23.14ZM51.287 23.216C51.287 22.241 51.079 21.45 50.659 20.843C50.203 20.207 49.586 19.889 48.809 19.889C48.275 19.889 47.795 20.073 47.365 20.44C46.935 20.808 46.662 21.303 46.541 21.925C46.481 22.166 46.451 22.366 46.451 22.527V24.063C46.451 24.867 46.676 25.524 47.127 26.033C47.578 26.543 48.166 26.797 48.895 26.797C49.706 26.797 50.331 26.485 50.771 25.862C51.115 25.337 51.287 24.588 51.287 23.216Z" fill="white"/>
  <path d="M64.307 23.14C64.307 24.664 63.866 25.853 62.987 26.705C62.204 27.455 61.227 27.83 60.056 27.83C58.779 27.83 57.873 27.418 57.339 26.597H57.302V31.245H55.252V21.45C55.252 20.486 55.225 19.491 55.165 18.465H56.978L57.082 19.882H57.119C57.818 18.787 58.884 18.241 60.308 18.241C61.44 18.241 62.386 18.642 63.144 19.444C63.92 20.246 64.307 21.517 64.307 23.14ZM62.222 23.216C62.222 22.241 62.012 21.45 61.593 20.843C61.137 20.207 60.52 19.889 59.743 19.889C59.208 19.889 58.727 20.073 58.297 20.44C57.868 20.808 57.596 21.303 57.474 21.925C57.414 22.166 57.384 22.366 57.384 22.527V24.063C57.384 24.867 57.61 25.524 58.061 26.033C58.511 26.543 59.101 26.797 59.828 26.797C60.64 26.797 61.264 26.485 61.705 25.862C62.05 25.337 62.222 24.588 62.222 23.216Z" fill="white"/>
  <path d="M76.166 24.341C76.166 25.331 75.822 26.15 75.135 26.797C74.373 27.502 73.282 27.855 71.866 27.855C70.565 27.855 69.528 27.608 68.753 27.119L69.221 25.405C70.05 25.908 70.965 26.161 71.965 26.161C72.737 26.161 73.337 25.995 73.762 25.663C74.188 25.331 74.401 24.891 74.401 24.341C74.401 23.857 74.233 23.446 73.895 23.114C73.56 22.781 72.998 22.475 72.217 22.195C69.926 21.374 68.783 20.197 68.783 18.667C68.783 17.715 69.141 16.932 69.858 16.324C70.573 15.716 71.526 15.412 72.72 15.412C73.81 15.412 74.72 15.6 75.449 15.98L74.945 17.659C74.261 17.293 73.486 17.111 72.62 17.111C71.902 17.111 71.345 17.279 70.951 17.618C70.618 17.918 70.45 18.282 70.45 18.721C70.45 19.19 70.634 19.583 71.006 19.9C71.32 20.194 71.919 20.517 72.802 20.862C73.887 21.304 74.676 21.811 75.168 22.383C75.833 22.956 76.166 23.711 76.166 24.341Z" fill="white"/>
  <path d="M82.555 19.99H80.35V24.271C80.35 25.546 80.778 26.186 81.633 26.186C82.003 26.186 82.3 26.153 82.531 26.085L82.586 27.613C82.178 27.772 81.648 27.855 80.995 27.855C80.185 27.855 79.555 27.594 79.105 27.076C78.657 26.557 78.432 25.66 78.432 24.39V19.99H77.115V18.465H78.432V16.926L80.35 16.389V18.465H82.555V19.99Z" fill="white"/>
  <path d="M93.396 23.177C93.396 24.49 93.011 25.599 92.238 26.51C91.426 27.46 90.345 27.934 89.001 27.934C87.705 27.934 86.668 27.483 85.893 26.584C85.117 25.685 84.731 24.612 84.731 23.368C84.731 22.039 85.127 20.925 85.918 20.025C86.71 19.124 87.777 18.675 89.122 18.675C90.417 18.675 91.47 19.127 92.276 20.025C93.021 20.891 93.396 21.95 93.396 23.177ZM91.272 23.248C91.272 22.426 91.094 21.714 90.735 21.124C90.316 20.417 89.722 20.063 88.949 20.063C88.159 20.063 87.555 20.417 87.136 21.124C86.779 21.714 86.601 22.438 86.601 23.291C86.601 24.115 86.779 24.827 87.136 25.415C87.573 26.123 88.172 26.476 88.944 26.476C89.702 26.476 90.298 26.117 90.73 25.397C91.092 24.8 91.272 24.083 91.272 23.248Z" fill="white"/>
  <path d="M98.703 20.227C98.49 20.191 98.263 20.174 98.02 20.174C97.283 20.174 96.725 20.455 96.345 21.019C96.015 21.504 95.849 22.119 95.849 22.857V27.553H93.799V21.336C93.799 20.311 93.781 19.368 93.748 18.508H95.553L95.633 20.173H95.685C95.893 19.6 96.223 19.14 96.676 18.798C97.118 18.488 97.593 18.333 98.105 18.333C98.315 18.333 98.5 18.347 98.66 18.377L98.703 20.227Z" fill="white"/>
  <path d="M107.273 22.764C107.273 23.149 107.247 23.471 107.195 23.729H101.201C101.218 24.649 101.538 25.351 102.159 25.83C102.722 26.261 103.448 26.476 104.336 26.476C105.327 26.476 106.223 26.345 107.027 26.083L107.356 27.479C106.414 27.827 105.323 28 104.08 28C102.583 28 101.408 27.564 100.556 26.691C99.707 25.818 99.282 24.648 99.282 23.183C99.282 21.749 99.673 20.56 100.457 19.615C101.287 18.613 102.389 18.111 103.759 18.111C105.103 18.111 106.104 18.613 106.76 19.615C107.102 20.14 107.273 20.787 107.273 21.555V22.764ZM105.377 22.303C105.393 21.743 105.278 21.258 105.033 20.851C104.716 20.31 104.214 20.041 103.526 20.041C102.892 20.041 102.374 20.305 101.975 20.834C101.648 21.24 101.45 21.731 101.385 22.303H105.377Z" fill="white"/>
</svg> 