<svg width="135" height="40" viewBox="0 0 135 40" fill="none" xmlns="http://www.w3.org/2000/svg">
  <rect width="135" height="40" rx="5" fill="#FFFFFF"/>
  <rect x="0.5" y="0.5" width="134" height="39" rx="4.5" stroke="#A6A6A6" stroke-opacity="0.54"/>
  <path d="M47.42 10.24C47.42 11.3 47.12 12.12 46.5 12.72C45.8 13.41 44.86 13.76 43.68 13.76C42.5 13.76 41.56 13.41 40.86 12.72C40.16 12.02 39.81 11.17 39.81 10.16C39.81 9.15 40.16 8.3 40.86 7.61C41.56 6.91 42.5 6.56 43.68 6.56C44.26 6.56 44.8 6.67 45.31 6.89C45.81 7.11 46.22 7.4 46.5 7.78L45.74 8.54C45.28 7.88 44.58 7.55 43.68 7.55C42.84 7.55 42.14 7.8 41.58 8.31C41.02 8.82 40.74 9.44 40.74 10.2C40.74 10.96 41.02 11.58 41.58 12.09C42.14 12.6 42.84 12.85 43.68 12.85C44.56 12.85 45.28 12.6 45.83 12.09C46.2 11.76 46.41 11.3 46.46 10.7H43.68V9.75H47.38C47.41 9.92 47.42 10.08 47.42 10.24Z" fill="#767676"/>
  <path d="M52 7.74H48.59V9.76H51.61V10.7H48.59V12.7H52V13.67H47.67V6.77H52V7.74Z" fill="#767676"/>
  <path d="M55.27 13.67H54.35V7.74H52.56V6.77H57.08V7.74H55.28V13.67H55.27Z" fill="#767676"/>
  <path d="M59.88 13.67V6.77H60.8V13.67H59.88Z" fill="#767676"/>
  <path d="M64.13 13.67H63.21V7.74H61.41V6.77H65.93V7.74H64.13V13.67Z" fill="#767676"/>
  <path d="M73.61 12.7C72.91 13.4 71.97 13.76 70.79 13.76C69.61 13.76 68.67 13.4 67.97 12.7C67.27 12 66.92 11.16 66.92 10.17C66.92 9.18 67.27 8.33 67.97 7.64C68.67 6.94 69.61 6.59 70.79 6.59C71.96 6.59 72.9 6.94 73.6 7.64C74.3 8.34 74.65 9.18 74.65 10.17C74.65 11.16 74.31 12 73.61 12.7ZM68.69 12.05C69.2 12.56 69.91 12.82 70.79 12.82C71.67 12.82 72.38 12.56 72.89 12.05C73.4 11.54 73.65 10.91 73.65 10.16C73.65 9.42 73.4 8.78 72.89 8.28C72.38 7.77 71.67 7.51 70.79 7.51C69.91 7.51 69.2 7.76 68.69 8.28C68.18 8.79 67.93 9.42 67.93 10.16C67.93 10.9 68.18 11.54 68.69 12.05Z" fill="#767676"/>
  <path d="M75.58 13.67V6.77H76.69L79.72 12.06H79.77L79.72 10.7V6.77H80.64V13.67H79.72L76.48 8.05H76.44L76.48 9.4V13.67H75.58Z" fill="#767676"/>
  <path d="M68.13 21.75C66.63 21.75 65.38 22.85 65.38 24.47C65.38 26.08 66.62 27.19 68.13 27.19C69.64 27.19 70.89 26.08 70.89 24.47C70.89 22.85 69.64 21.75 68.13 21.75ZM68.13 26.02C67.34 26.02 66.67 25.41 66.67 24.47C66.67 23.52 67.34 22.92 68.13 22.92C68.93 22.92 69.6 23.52 69.6 24.47C69.6 25.41 68.93 26.02 68.13 26.02ZM62.1 21.75C60.59 21.75 59.35 22.85 59.35 24.47C59.35 26.08 60.59 27.19 62.1 27.19C63.61 27.19 64.85 26.08 64.85 24.47C64.85 22.85 63.61 21.75 62.1 21.75ZM62.1 26.02C61.3 26.02 60.63 25.41 60.63 24.47C60.63 23.52 61.3 22.92 62.1 22.92C62.9 22.92 63.57 23.52 63.57 24.47C63.57 25.41 62.9 26.02 62.1 26.02ZM54.81 22.7V24.01H57.52C57.44 24.69 57.24 25.16 56.93 25.47C56.55 25.86 55.95 26.28 54.81 26.28C53.18 26.28 51.92 24.99 51.92 23.35C51.92 21.72 53.18 20.42 54.81 20.42C55.75 20.42 56.43 20.82 56.92 21.27L57.85 20.34C57.14 19.67 56.19 19.14 54.81 19.14C52.45 19.14 50.56 20.96 50.56 23.35C50.56 25.75 52.45 27.57 54.81 27.57C56.15 27.57 57.14 27.12 57.92 26.31C58.71 25.52 58.98 24.4 58.98 23.5C58.98 23.24 58.96 23 58.92 22.81H54.81V22.7ZM87.25 23.97C87.03 23.39 86.34 21.75 84.66 21.75C82.99 21.75 81.6 23.27 81.6 24.47C81.6 25.53 82.85 27.19 84.66 27.19C86.11 27.19 86.88 26.28 87.16 25.86L86.15 25.21C85.86 25.7 85.39 26.02 84.66 26.02C83.94 26.02 83.41 25.7 83.09 25.09L87.21 23.35L87.25 23.97ZM82.91 24.09C82.88 22.97 83.75 22.9 83.96 22.9C84.48 22.9 84.92 23.16 85.05 23.52L82.91 24.09ZM79.23 27.37H80.51V19.37H79.23V27.37ZM77.13 22.58H77.1C76.82 22.24 76.31 21.94 75.7 21.94C74.13 21.94 72.69 23.31 72.69 24.48C72.69 25.65 74.13 26.98 75.7 26.98C76.31 26.98 76.82 26.69 77.1 26.33H77.13V26.76C77.13 27.83 76.59 28.37 75.73 28.37C75.02 28.37 74.55 27.88 74.38 27.46L73.27 27.91C73.57 28.64 74.39 29.53 75.73 29.53C77.14 29.53 78.32 28.72 78.32 26.54V22.07H77.13V22.58ZM75.81 26.02C75.02 26.02 74.36 25.39 74.36 24.48C74.36 23.56 75.02 22.92 75.81 22.92C76.6 22.92 77.21 23.56 77.21 24.48C77.21 25.39 76.6 26.02 75.81 26.02ZM93.4 19.37H90.16V27.37H91.44V24.37H93.4C94.92 24.37 96.42 23.26 96.42 21.87C96.42 20.48 94.92 19.37 93.4 19.37ZM93.46 23.18H91.44V20.55H93.46C94.4 20.55 95.13 21.3 95.13 21.87C95.13 22.42 94.4 23.18 93.46 23.18ZM101.45 21.93C100.53 21.93 99.58 22.35 99.25 23.29L100.36 23.71C100.57 23.28 101.01 23.12 101.47 23.12C102.1 23.12 102.74 23.52 102.76 24.2V24.28C102.58 24.18 102.14 24.01 101.48 24.01C100.09 24.01 98.68 24.78 98.68 26.2C98.68 27.49 99.76 28.3 100.99 28.3C101.93 28.3 102.46 27.86 102.8 27.38H102.83V27.37H104.05V24.28C104.05 22.6 102.92 21.93 101.45 21.93ZM101.28 27.13C100.84 27.13 100.36 26.9 100.36 26.22C100.36 25.37 100.97 25.13 101.49 25.13C101.95 25.13 102.19 25.23 102.53 25.37C102.44 26.39 101.84 27.13 101.28 27.13ZM108.58 22.07L107.11 25.5H107.08L105.55 22.07H104.19L106.52 26.84L105.22 29.78H106.53L110.03 22.07H108.58ZM94.75 27.37H96.03V19.37H94.75V27.37Z" fill="#000000"/>
  <path fill-rule="evenodd" clip-rule="evenodd" d="M18.88 13.77L8.45 23.99C8.45 24 8.45 24 8.45 24.01L18.78 34.23L18.88 34.13L23.05 29.97L18.88 25.81V13.87V13.77Z" fill="url(#paint0_linear_1082_78)"/>
  <path fill-rule="evenodd" clip-rule="evenodd" d="M27.26 25.79L23.06 29.97L27.2 34.1L31.46 31.53C32.8 30.74 32.8 29.04 31.46 28.25L27.26 25.79Z" fill="url(#paint1_linear_1082_78)"/>
  <path fill-rule="evenodd" clip-rule="evenodd" d="M8.45 24.01L8.52 24.08L18.82 34.25L27.2 34.1L23.06 29.97L8.45 24.01Z" fill="url(#paint2_linear_1082_78)"/>
  <path fill-rule="evenodd" clip-rule="evenodd" d="M27.26 13.74L18.88 13.77L8.45 23.99C8.45 24 8.45 24 8.45 24.01L23.05 29.97L27.26 25.79L31.45 23.31C32.8 22.52 32.8 20.81 31.45 20.03L27.26 13.74Z" fill="url(#paint3_linear_1082_78)"/>
  <defs>
    <linearGradient id="paint0_linear_1082_78" x1="15.89" y1="16.74" x2="15.89" y2="31.26" gradientUnits="userSpaceOnUse">
      <stop stop-color="#00C3FF"/>
      <stop offset="1" stop-color="#1BE2FA"/>
    </linearGradient>
    <linearGradient id="paint1_linear_1082_78" x1="23.06" y1="29.97" x2="32.31" y2="29.97" gradientUnits="userSpaceOnUse">
      <stop stop-color="#FFCE00"/>
      <stop offset="1" stop-color="#FFEA00"/>
    </linearGradient>
    <linearGradient id="paint2_linear_1082_78" x1="8.45" y1="29.13" x2="27.2" y2="29.13" gradientUnits="userSpaceOnUse">
      <stop stop-color="#DE2453"/>
      <stop offset="1" stop-color="#FE3944"/>
    </linearGradient>
    <linearGradient id="paint3_linear_1082_78" x1="8.45" y1="23.89" x2="31.98" y2="23.89" gradientUnits="userSpaceOnUse">
      <stop stop-color="#11D574"/>
      <stop offset="1" stop-color="#01F176"/>
    </linearGradient>
  </defs>
</svg> 